<svg width="163" height="15" viewBox="0 0 163 15" fill="none" xmlns="http://www.w3.org/2000/svg">
<path d="M6.92 14L9.42 10.56H12.78C13.18 10.56 13.5933 10.56 14.02 10.56C14.46 10.56 14.84 10.5733 15.16 10.6C14.9733 10.36 14.7533 10.06 14.5 9.7C14.26 9.32667 14.0267 8.98 13.8 8.66L11.4 5.12L5.12 14H0.22L8.8 1.9C9.08 1.51333 9.43333 1.16667 9.86 0.86C10.2867 0.553333 10.8267 0.4 11.48 0.4C12.1067 0.4 12.6267 0.546666 13.04 0.839999C13.4667 1.12 13.8267 1.47333 14.12 1.9L22.48 14H6.92ZM36.3553 5.96C37.9953 5.96 39.242 6.26667 40.0953 6.88C40.9486 7.48 41.3753 8.39333 41.3753 9.62C41.3753 10.3 41.2686 10.9133 41.0553 11.46C40.842 12.0067 40.502 12.4667 40.0353 12.84C39.5686 13.2133 38.9686 13.5 38.2353 13.7C37.5153 13.9 36.6486 14 35.6353 14H23.1753L25.8353 10.56H35.9553C36.4486 10.56 36.8086 10.4867 37.0353 10.34C37.262 10.18 37.3753 9.92667 37.3753 9.58C37.3753 9.23333 37.262 8.98667 37.0353 8.84C36.8086 8.69333 36.4486 8.62 35.9553 8.62H28.6753C27.8086 8.62 27.062 8.52667 26.4353 8.34C25.8086 8.15333 25.2886 7.89333 24.8753 7.56C24.462 7.22667 24.1553 6.82667 23.9553 6.36C23.7553 5.88 23.6553 5.35333 23.6553 4.78C23.6553 4.15333 23.762 3.58667 23.9753 3.08C24.202 2.56 24.542 2.12 24.9953 1.76C25.462 1.4 26.0553 1.12 26.7753 0.919999C27.5086 0.719999 28.382 0.619999 29.3953 0.619999H41.0153L38.3553 4.1H29.0753C28.5953 4.1 28.2353 4.16667 27.9953 4.3C27.7686 4.43333 27.6553 4.67333 27.6553 5.02C27.6553 5.36667 27.7686 5.61333 27.9953 5.76C28.2353 5.89333 28.5953 5.96 29.0753 5.96H36.3553ZM58.6417 0.619999L55.9617 4.1H51.1817V14H47.0417V4.1H40.7617L43.4417 0.619999H58.6417ZM77.5252 14H71.9852L69.0052 10.46H62.6452V14H58.5052V7.16H70.1452C70.7852 7.16 71.3252 7.02667 71.7652 6.76C72.2052 6.49333 72.4252 6.12667 72.4252 5.66C72.4252 5.14 72.2252 4.75333 71.8252 4.5C71.4252 4.23333 70.8652 4.1 70.1452 4.1H58.5052L61.2052 0.619999H69.8052C70.5652 0.619999 71.3518 0.693333 72.1652 0.839999C72.9785 0.973333 73.7185 1.22 74.3852 1.58C75.0518 1.94 75.5985 2.42667 76.0252 3.04C76.4652 3.65333 76.6852 4.44 76.6852 5.4C76.6852 5.92 76.6052 6.41333 76.4452 6.88C76.2852 7.34667 76.0518 7.76667 75.7452 8.14C75.4518 8.51333 75.0852 8.83333 74.6452 9.1C74.2185 9.35333 73.7318 9.53333 73.1852 9.64C73.4118 9.81333 73.6652 10.0333 73.9452 10.3C74.2252 10.5667 74.5985 10.9333 75.0652 11.4L77.5252 14ZM87.8856 0.4C91.139 0.4 93.579 0.953333 95.2056 2.06C96.8456 3.16667 97.6656 4.91333 97.6656 7.3C97.6656 9.7 96.8523 11.4533 95.2256 12.56C93.599 13.6667 91.1523 14.22 87.8856 14.22C84.6056 14.22 82.1523 13.6667 80.5256 12.56C78.9123 11.4533 78.1056 9.7 78.1056 7.3C78.1056 4.91333 78.919 3.16667 80.5456 2.06C82.1723 0.953333 84.619 0.4 87.8856 0.4ZM87.8856 10.74C88.9256 10.74 89.8056 10.7 90.5256 10.62C91.2456 10.5267 91.8256 10.3533 92.2656 10.1C92.719 9.84667 93.0456 9.5 93.2456 9.06C93.4456 8.60667 93.5456 8.02 93.5456 7.3C93.5456 6.58 93.4456 6 93.2456 5.56C93.0456 5.10667 92.719 4.76 92.2656 4.52C91.8256 4.26667 91.2456 4.1 90.5256 4.02C89.8056 3.92667 88.9256 3.88 87.8856 3.88C86.8456 3.88 85.9656 3.92667 85.2456 4.02C84.5256 4.1 83.939 4.26667 83.4856 4.52C83.0456 4.76 82.7256 5.10667 82.5256 5.56C82.3256 6 82.2256 6.58 82.2256 7.3C82.2256 8.02 82.3256 8.60667 82.5256 9.06C82.7256 9.5 83.0456 9.84667 83.4856 10.1C83.939 10.3533 84.5256 10.5267 85.2456 10.62C85.9656 10.7 86.8456 10.74 87.8856 10.74ZM113.316 14.22C113.049 14.22 112.783 14.1733 112.516 14.08C112.263 14 111.976 13.8067 111.656 13.5L103.456 6.14V14H99.6961V2.9C99.6961 2.46 99.7561 2.08 99.8761 1.76C100.009 1.44 100.176 1.18 100.376 0.98C100.589 0.78 100.829 0.633333 101.096 0.539999C101.376 0.446666 101.663 0.4 101.956 0.4C102.209 0.4 102.463 0.446666 102.716 0.539999C102.983 0.619999 103.283 0.813332 103.616 1.12L111.816 8.48V0.619999H115.596V11.7C115.596 12.14 115.529 12.52 115.396 12.84C115.276 13.16 115.109 13.4267 114.896 13.64C114.696 13.84 114.456 13.9867 114.176 14.08C113.896 14.1733 113.609 14.22 113.316 14.22ZM127.397 0.4C130.651 0.4 133.091 0.953333 134.717 2.06C136.357 3.16667 137.177 4.91333 137.177 7.3C137.177 9.7 136.364 11.4533 134.737 12.56C133.111 13.6667 130.664 14.22 127.397 14.22C124.117 14.22 121.664 13.6667 120.037 12.56C118.424 11.4533 117.617 9.7 117.617 7.3C117.617 4.91333 118.431 3.16667 120.057 2.06C121.684 0.953333 124.131 0.4 127.397 0.4ZM127.397 10.74C128.437 10.74 129.317 10.7 130.037 10.62C130.757 10.5267 131.337 10.3533 131.777 10.1C132.231 9.84667 132.557 9.5 132.757 9.06C132.957 8.60667 133.057 8.02 133.057 7.3C133.057 6.58 132.957 6 132.757 5.56C132.557 5.10667 132.231 4.76 131.777 4.52C131.337 4.26667 130.757 4.1 130.037 4.02C129.317 3.92667 128.437 3.88 127.397 3.88C126.357 3.88 125.477 3.92667 124.757 4.02C124.037 4.1 123.451 4.26667 122.997 4.52C122.557 4.76 122.237 5.10667 122.037 5.56C121.837 6 121.737 6.58 121.737 7.3C121.737 8.02 121.837 8.60667 122.037 9.06C122.237 9.5 122.557 9.84667 122.997 10.1C123.451 10.3533 124.037 10.5267 124.757 10.62C125.477 10.7 126.357 10.74 127.397 10.74ZM147.922 5.6C148.215 6.12 148.469 6.58 148.682 6.98C148.909 7.36667 149.102 7.71333 149.262 8.02C149.435 8.32667 149.582 8.60667 149.702 8.86C149.835 9.11333 149.962 9.36 150.082 9.6C150.189 9.36 150.302 9.12 150.422 8.88C150.555 8.62667 150.702 8.34667 150.862 8.04C151.035 7.72 151.229 7.36667 151.442 6.98C151.669 6.59333 151.929 6.14 152.222 5.62L154.362 1.82C154.602 1.39333 154.902 1.05333 155.262 0.799999C155.635 0.533333 156.095 0.4 156.642 0.4C157.162 0.4 157.629 0.553333 158.042 0.86C158.469 1.15333 158.775 1.61333 158.962 2.24L162.342 14H158.222L156.962 9.34C156.749 8.58 156.569 7.91333 156.422 7.34C156.275 6.76667 156.149 6.20667 156.042 5.66C155.815 6.12667 155.562 6.64667 155.282 7.22C155.002 7.78 154.635 8.49333 154.182 9.36L152.382 12.72C152.209 13.0533 152.029 13.32 151.842 13.52C151.669 13.7067 151.489 13.8533 151.302 13.96C151.115 14.0667 150.915 14.1333 150.702 14.16C150.489 14.2 150.255 14.22 150.002 14.22C149.749 14.22 149.515 14.2 149.302 14.16C149.089 14.1333 148.889 14.0667 148.702 13.96C148.515 13.8533 148.329 13.7067 148.142 13.52C147.969 13.32 147.795 13.0533 147.622 12.72L145.822 9.34C145.582 8.88667 145.369 8.48 145.182 8.12C144.995 7.76 144.822 7.44 144.662 7.16C144.515 6.86667 144.382 6.6 144.262 6.36C144.155 6.12 144.049 5.88667 143.942 5.66C143.835 6.19333 143.709 6.75333 143.562 7.34C143.415 7.91333 143.242 8.58 143.042 9.34L141.782 14H137.722L141.182 2.24C141.369 1.61333 141.675 1.15333 142.102 0.86C142.529 0.553333 143.002 0.4 143.522 0.4C144.055 0.4 144.502 0.526666 144.862 0.78C145.235 1.03333 145.542 1.38 145.782 1.82L147.922 5.6Z" fill="#FAFAFF"/>
</svg>
